<?xml version="1.0" encoding="UTF-8"?>
<svg id="Layer_1" data-name="Layer 1" xmlns="http://www.w3.org/2000/svg" version="1.1" viewBox="0 0 1742 520">
  <defs>
    <style>
      .cls-1 {
        stroke: #afa200;
      }

      .cls-1, .cls-2 {
        fill: none;
        stroke-miterlimit: 10;
        stroke-width: .03px;
      }

      .cls-2 {
        stroke: #000;
      }
    </style>
  </defs>
  <path class="cls-2" d="M735.8,58.98l-162.07,81.15c-51.7-56.61-139.14-93.81-238.31-93.81-158.81,0-287.56,95.41-287.56,213.12s128.75,213.13,287.57,213.13c99.17,0,186.61-37.21,238.31-93.81l162.07,81.15"/>
  <polyline class="cls-2" points="735.8 459.91 735.8 259.44 735.8 58.98"/>
  <path class="cls-2" d="M272.75,200.6c0,27.4-22.21,49.61-49.61,49.61s-49.61-22.21-49.61-49.61,22.21-49.61,49.61-49.61,49.61,22.21,49.61,49.61"/>
  <polyline class="cls-2" points="763.63 459.91 763.63 259.44 763.63 58.98"/>
  <path class="cls-2" d="M763.63,58.98l162.07,81.15c51.7-56.61,139.14-93.81,238.31-93.81,158.82,0,287.57,95.42,287.57,213.13s-128.75,213.13-287.57,213.13c-99.17,0-186.61-37.21-238.31-93.81l-162.07,81.15"/>
  <path class="cls-2" d="M1226.68,200.6c0,27.4,22.21,49.61,49.61,49.61s49.61-22.21,49.61-49.61-22.21-49.61-49.61-49.61-49.61,22.21-49.61,49.61"/>
  <path class="cls-1" d="M296.84,200.6c0,40.7-33,73.7-73.7,73.7s-73.7-33-73.7-73.7,33-73.7,73.7-73.7,73.7,33,73.7,73.7"/>
  <path class="cls-1" d="M1202.59,200.6c0-40.7,33-73.7,73.7-73.7s73.7,33,73.7,73.7-33,73.7-73.7,73.7-73.7-33-73.7-73.7"/>
  <path class="cls-1" d="M1513.47,173.03c0-40.7,33-73.7,73.7-73.7s73.7,33,73.7,73.7-33,73.7-73.7,73.7-73.7-33-73.7-73.7"/>
  <path class="cls-2" d="M1489.38,173.03c0-54.01,43.78-97.8,97.8-97.8s97.8,43.78,97.8,97.8-43.78,97.8-97.8,97.8-97.8-43.78-97.8-97.8"/>
  <path class="cls-2" d="M1489.38,375.56c0-54.01,43.78-97.8,97.8-97.8s97.8,43.78,97.8,97.8-43.78,97.8-97.8,97.8-97.8-43.78-97.8-97.8"/>
  <path class="cls-1" d="M1513.47,375.56c0-40.7,33-73.7,73.7-73.7s73.7,33,73.7,73.7-33,73.7-73.7,73.7-73.7-33-73.7-73.7"/>
</svg>