<?xml version="1.0" encoding="UTF-8"?>
<svg id="Layer_1" data-name="Layer 1" xmlns="http://www.w3.org/2000/svg" version="1.1" viewBox="0 0 286 511">
  <defs>
    <style>
      .cls-1 {
        stroke: #afa200;
      }

      .cls-1, .cls-2 {
        fill: none;
        stroke-miterlimit: 10;
        stroke-width: .03px;
      }

      .cls-2 {
        stroke: #000;
      }
    </style>
  </defs>
  <path class="cls-1" d="M68.49,147.49c0-40.7,33-73.7,73.7-73.7s73.7,33,73.7,73.7-33,73.7-73.7,73.7-73.7-33-73.7-73.7"/>
  <path class="cls-2" d="M44.4,147.49c0-54.01,43.78-97.8,97.8-97.8s97.8,43.78,97.8,97.8-43.78,97.8-97.8,97.8-97.8-43.78-97.8-97.8"/>
  <path class="cls-2" d="M44.4,350.02c0-54.01,43.78-97.8,97.8-97.8s97.8,43.78,97.8,97.8-43.78,97.8-97.8,97.8-97.8-43.78-97.8-97.8"/>
  <path class="cls-1" d="M68.49,350.02c0-40.7,33-73.7,73.7-73.7s73.7,33,73.7,73.7-33,73.7-73.7,73.7-73.7-33-73.7-73.7"/>
</svg>