<?xml version="1.0" encoding="utf-8"?>
<!-- Generator: Adobe Illustrator 26.2.1, SVG Export Plug-In . SVG Version: 6.00 Build 0)  -->
<svg version="1.1" id="Layer_1" xmlns="http://www.w3.org/2000/svg" xmlns:xlink="http://www.w3.org/1999/xlink" x="0px" y="0px"
	 viewBox="0 0 250 250" style="enable-background:new 0 0 250 250;" xml:space="preserve">
<style type="text/css">
	.st0{fill:none;stroke:#BFBFBF;stroke-width:3;stroke-linecap:round;stroke-linejoin:round;}
	.st1{fill:none;stroke:#000000;stroke-linecap:round;stroke-miterlimit:10;}
	.st2{fill:#777777;}
</style>
<path id="joint" class="st0" d="M25,25c0,0,20,38.7,20,100S25,225,25,225"/>
<path id="joint-2" class="st0" d="M225,25c0,0-20,38.8-20,100s20,100,20,100"/>
<path class="st1" d="M225,25l-20.1-10.4c-4.3,10.6-8.6,21.2-11.8,31.7c-3.1,10.2-5.4,20.7-6.9,31.2c-1.7,10.5-2.8,21-3.4,31.6
	c-0.6,10.6-0.6,21.2,0,31.7c0.5,10.6,1.6,21.2,3.4,31.6c1.8,10.5,4.4,20.9,6.9,31.2s7.2,21,11.8,31.7L225,225"/>
<path class="st2" d="M208,38.2c0.2-6.3,5.5-11.2,11.8-11c6.3,0.2,11.2,5.5,11,11.8c-0.2,6.1-5.2,11-11.3,11
	c-6.3,0-11.4-5.1-11.4-11.4C208,38.5,208,38.4,208,38.2L208,38.2L208,38.2z"/>
<path class="st2" d="M199.9,66.7c0-6.3,5.1-11.4,11.4-11.4c6.3,0,11.4,5.1,11.4,11.4c0,6.3-5.1,11.4-11.4,11.4l0,0l0,0
	C205,78.1,199.9,73,199.9,66.7z"/>
<path class="st2" d="M195.2,95.7c0-6.3,5.1-11.4,11.4-11.4c6.3,0,11.4,5.1,11.4,11.4c0,6.3-5.1,11.4-11.4,11.4l0,0l0,0
	C200.3,107,195.2,102,195.2,95.7z"/>
<path class="st2" d="M193.6,125c0-6.3,5.1-11.4,11.4-11.4c6.3,0,11.4,5.1,11.4,11.4c0,6.3-5.1,11.4-11.4,11.4l0,0l0,0
	C198.7,136.4,193.6,131.3,193.6,125z"/>
<path class="st2" d="M195.2,154.3c0-6.3,5.1-11.4,11.4-11.4s11.4,5.1,11.4,11.4s-5.1,11.4-11.4,11.4l0,0l0,0
	C200.3,165.7,195.2,160.6,195.2,154.3z"/>
<path class="st2" d="M199.9,183.2c0-6.3,5.1-11.4,11.4-11.4s11.4,5.1,11.4,11.4s-5.1,11.4-11.4,11.4l0,0l0,0
	C205,194.6,199.9,189.5,199.9,183.2z"/>
<path class="st2" d="M208,211.5c0-6.3,5.1-11.4,11.4-11.4s11.4,5.1,11.4,11.4s-5.1,11.4-11.4,11.4l0,0l0,0
	C213.1,222.8,208,217.7,208,211.5z"/>
<path class="st1" d="M25,25l20.2-10.4c4.3,10.6,8.6,21.2,11.8,31.7C60,56.5,62.3,67,63.9,77.5c1.7,10.5,2.8,21,3.4,31.6
	c0.6,10.6,0.6,21.2,0,31.7c-0.5,10.6-1.6,21.2-3.4,31.6c-1.8,10.5-4.4,20.9-6.9,31.2s-7.2,21-11.8,31.7L25,225"/>
<path class="st2" d="M19.3,38.2c0.2-6.3,5.5-11.2,11.8-11c6.3,0.2,11.2,5.5,11,11.8c-0.2,6.1-5.3,11-11.4,11
	c-6.3,0-11.3-5.2-11.3-11.4C19.3,38.4,19.3,38.3,19.3,38.2L19.3,38.2L19.3,38.2z"/>
<path class="st2" d="M27.4,66.7c0-6.3,5.1-11.4,11.4-11.4c6.3,0,11.4,5.1,11.4,11.4c0,6.3-5.1,11.4-11.4,11.4h0l0,0
	C32.5,78.1,27.4,73,27.4,66.7z"/>
<path class="st2" d="M32.1,95.7c0-6.3,5.1-11.4,11.4-11.4c6.3,0,11.4,5.1,11.4,11.4c0,6.3-5.1,11.4-11.4,11.4h0l0,0
	C37.1,107,32.1,102,32.1,95.7z"/>
<path class="st2" d="M33.6,125.1c0-6.3,5-11.4,11.3-11.4c6.3,0,11.4,5,11.4,11.3c0,6.3-5,11.4-11.3,11.4c0,0-0.1,0-0.1,0l0,0
	C38.8,136.4,33.7,131.3,33.6,125.1z"/>
<path class="st2" d="M32.1,154.3c0-6.3,5.1-11.4,11.4-11.4s11.4,5.1,11.4,11.4s-5.1,11.4-11.4,11.4h0l0,0
	C37.1,165.7,32.1,160.6,32.1,154.3z"/>
<path class="st2" d="M27.4,183.2c0-6.3,5.1-11.4,11.4-11.4s11.4,5.1,11.4,11.4s-5.1,11.4-11.4,11.4h0l0,0
	C32.5,194.6,27.4,189.5,27.4,183.2z"/>
<path class="st2" d="M19.3,211.5c0-6.3,5.1-11.4,11.4-11.4S42,205.2,42,211.5c0,6.3-5.1,11.4-11.4,11.4h0l0,0
	C24.4,222.8,19.3,217.7,19.3,211.5z"/>
</svg>
