<?xml version="1.0" encoding="utf-8"?>
<!-- Generator: Adobe Illustrator 26.2.1, SVG Export Plug-In . SVG Version: 6.00 Build 0)  -->
<svg version="1.1" id="Layer_1" xmlns="http://www.w3.org/2000/svg" xmlns:xlink="http://www.w3.org/1999/xlink" x="0px" y="0px"
	 viewBox="0 0 250 250" style="enable-background:new 0 0 250 250;" xml:space="preserve">
<style type="text/css">
	.st0{fill:none;stroke:#BFBFBF;stroke-width:3;stroke-linecap:round;stroke-linejoin:round;}
	.st1{fill:none;stroke:#000000;stroke-linecap:round;stroke-miterlimit:10;}
	.st2{fill:#777777;}
</style>
<path id="joint" class="st0" d="M25,25c0,0,20,38.7,20,100S25,225,25,225"/>
<path id="joint-2" class="st0" d="M225,25c0,0-20,38.8-20,100s20,100,20,100"/>
<path class="st1" d="M225,25l-20.1-10.4c-4.3,10.6-8.6,21.2-11.8,31.7c-3.1,10.2-5.4,20.7-6.9,31.2c-1.7,10.5-2.8,21-3.4,31.6
	c-0.6,10.6-0.6,21.2,0,31.7c0.5,10.6,1.6,21.2,3.4,31.6c1.8,10.5,4.4,20.9,6.9,31.2s7.2,21,11.8,31.7L225,225"/>
<path class="st1" d="M217.9,38.5c0-0.8,0.7-1.4,1.5-1.4c0.8,0,1.4,0.7,1.4,1.5c0,0.8-0.7,1.4-1.4,1.4
	C218.6,40,217.9,39.4,217.9,38.5C217.9,38.6,217.9,38.6,217.9,38.5L217.9,38.5L217.9,38.5z"/>
<path class="st1" d="M25,25l20.2-10.4c4.3,10.6,8.6,21.2,11.8,31.7C60,56.5,62.3,67,63.9,77.5c1.7,10.5,2.8,21,3.4,31.6
	c0.6,10.6,0.6,21.2,0,31.7c-0.5,10.6-1.6,21.2-3.4,31.6c-1.8,10.5-4.4,20.9-6.9,31.2s-7.2,21-11.8,31.7L25,225"/>
<path class="st1" d="M29.2,38.5c0-0.8,0.7-1.4,1.5-1.4c0.8,0,1.4,0.7,1.4,1.5c0,0.8-0.7,1.4-1.4,1.4C29.8,40,29.2,39.4,29.2,38.5
	C29.2,38.6,29.2,38.6,29.2,38.5L29.2,38.5L29.2,38.5z"/>
<path class="st1" d="M37.3,66.7c0-0.8,0.6-1.4,1.4-1.4c0.8,0,1.4,0.6,1.4,1.4c0,0.8-0.6,1.4-1.4,1.4h0l0,0
	C38,68.2,37.3,67.5,37.3,66.7z"/>
<path class="st2" d="M42.8,90.9L42.8,90.9c-2,0.5-4.1-0.8-4.6-2.8L26.7,40.8c-0.5-2,0.8-4.1,2.8-4.6h0c2-0.5,4.1,0.8,4.6,2.8
	l11.5,47.3C46.1,88.3,44.8,90.4,42.8,90.9z"/>
<path class="st2" d="M218.4,36.4L218.4,36.4c2-0.6,4.1,0.6,4.6,2.6v0c0.6,2-0.6,4.1-2.6,4.6h0c-2,0.6-4.1-0.6-4.6-2.6v0
	C215.2,39,216.4,36.9,218.4,36.4z"/>
<path class="st2" d="M35.9,195.3L35.9,195.3c-2.1-0.3-3.5-2.3-3.2-4.3l7.4-48.1c0.3-2.1,2.3-3.5,4.3-3.2h0c2.1,0.3,3.5,2.3,3.2,4.3
	l-7.4,48.1C39.9,194.2,38,195.6,35.9,195.3z"/>
<path class="st2" d="M205.5,146.9L205.5,146.9c-2.1-0.1-3.7-1.8-3.7-3.9l1.2-48.6c0.1-2.1,1.8-3.7,3.9-3.7l0,0
	c2.1,0.1,3.7,1.8,3.7,3.9l-1.2,48.6C209.3,145.2,207.5,146.9,205.5,146.9z"/>
<path class="st2" d="M211.4,186.5L211.4,186.5c2-0.6,4.1,0.6,4.6,2.6l0,0c0.6,2-0.6,4.1-2.6,4.6h0c-2,0.6-4.1-0.6-4.6-2.6v0
	C208.2,189.2,209.4,187.1,211.4,186.5z"/>
</svg>
