<?xml version="1.0" encoding="utf-8"?>
<!-- Generator: Adobe Illustrator 26.2.1, SVG Export Plug-In . SVG Version: 6.00 Build 0)  -->
<svg version="1.1" id="Layer_1" xmlns="http://www.w3.org/2000/svg" xmlns:xlink="http://www.w3.org/1999/xlink" x="0px" y="0px"
	 viewBox="0 0 250 250" style="enable-background:new 0 0 250 250;" xml:space="preserve">
<style type="text/css">
	.st0{fill:none;stroke:#BFBFBF;stroke-width:3;stroke-linecap:round;stroke-linejoin:round;}
	.st1{fill:none;stroke:#000000;stroke-linecap:round;stroke-miterlimit:10;}
	.st2{fill:#777777;}
</style>
<path id="joint_00000049920656399008890380000011510401349106588554_" class="st0" d="M202.8,229.9c0,0-20-40.7-20-105.2
	s20-105.2,20-105.2"/>
<path id="joint_00000054264250902404931050000013921146999083821485_" class="st0" d="M224.1,224.9c0,0-20-38.7-20-100
	s20-100,20-100"/>
<path class="st1" d="M217.1,38.4c0-0.8,0.7-1.4,1.5-1.4c0.8,0,1.4,0.7,1.4,1.5c0,0.8-0.7,1.4-1.4,1.4
	C217.7,39.9,217.1,39.3,217.1,38.4C217.1,38.5,217.1,38.4,217.1,38.4L217.1,38.4L217.1,38.4z"/>
<path class="st1" d="M209,66.6c0-0.8,0.6-1.4,1.4-1.4c0.8,0,1.4,0.6,1.4,1.4c0,0.8-0.6,1.4-1.4,1.4l0,0l0,0
	C209.6,68,209,67.4,209,66.6z"/>
<path class="st1" d="M204.3,95.6c0-0.8,0.6-1.4,1.4-1.4c0.8,0,1.4,0.6,1.4,1.4c0,0.8-0.6,1.4-1.4,1.4l0,0l0,0
	C204.9,97,204.3,96.4,204.3,95.6z"/>
<path class="st1" d="M202.7,124.9c0-0.8,0.6-1.4,1.4-1.4c0.8,0,1.4,0.6,1.4,1.4c0,0.8-0.6,1.4-1.4,1.4l0,0l0,0
	C203.4,126.3,202.7,125.7,202.7,124.9z"/>
<path class="st1" d="M204.3,154.2c0-0.8,0.6-1.4,1.4-1.4s1.4,0.6,1.4,1.4s-0.6,1.4-1.4,1.4l0,0l0,0
	C204.9,155.6,204.3,155,204.3,154.2z"/>
<path class="st1" d="M209,183.1c0-0.8,0.6-1.4,1.4-1.4s1.4,0.6,1.4,1.4s-0.6,1.4-1.4,1.4l0,0l0,0C209.6,184.6,209,183.9,209,183.1z"
	/>
<path class="st1" d="M192.1,45.9c0-0.8,0.7-1.4,1.5-1.4c0.8,0,1.4,0.7,1.4,1.5c0,0.8-0.7,1.4-1.5,1.4l0,0l0,0
	C192.6,47.4,192,46.7,192.1,45.9z"/>
<path class="st1" d="M185.5,76c0-0.8,0.7-1.4,1.5-1.4c0.8,0,1.4,0.7,1.4,1.5c0,0.8-0.7,1.4-1.5,1.4l0,0l0,0
	C186.1,77.5,185.5,76.8,185.5,76z"/>
<path class="st1" d="M184.7,172.1c0-0.8,0.7-1.4,1.5-1.4s1.4,0.7,1.4,1.5s-0.7,1.4-1.5,1.4l0,0l0,0
	C185.3,173.6,184.7,172.9,184.7,172.1z"/>
<path class="st1" d="M217.1,211.4c0-0.8,0.6-1.4,1.4-1.4s1.4,0.6,1.4,1.4s-0.6,1.4-1.4,1.4l0,0l0,0
	C217.7,212.8,217.1,212.1,217.1,211.4z"/>
<path class="st2" d="M213.9,183.3L213.9,183.3c-0.8,1.9-3,2.8-4.9,2.1l-22.8-9.4c-1.9-0.8-2.8-3-2.1-4.9l0,0c0.8-1.9,3-2.8,4.9-2.1
	l22.8,9.4C213.7,179.2,214.7,181.4,213.9,183.3z"/>
<path class="st2" d="M207.3,97L207.3,97c-1.5,1.5-3.9,1.5-5.3,0l-17.3-17.3c-1.5-1.5-1.5-3.9,0-5.3h0c1.5-1.5,3.9-1.5,5.3,0
	l17.3,17.3C208.8,93.2,208.8,95.6,207.3,97z"/>
<path class="st2" d="M207.3,125.4L207.3,125.4c-1,1.8-3.4,2.4-5.2,1.4l-20.6-11.9c-1.8-1-2.4-3.4-1.4-5.2v0c1-1.8,3.4-2.4,5.2-1.4
	l20.6,11.9C207.7,121.3,208.3,123.6,207.3,125.4z"/>
<path class="st1" d="M191.4,202.1c0-0.8,0.7-1.4,1.5-1.4s1.4,0.7,1.4,1.5c0,0.8-0.7,1.4-1.5,1.4l0,0l0,0
	C192,203.6,191.4,202.9,191.4,202.1z"/>
<path class="st2" d="M221.2,211.8L221.2,211.8c-0.6,2-2.8,3.1-4.7,2.5l-24.3-7.7c-2-0.6-3.1-2.8-2.5-4.7l0,0c0.6-2,2.8-3.1,4.7-2.5
	l24.3,7.7C220.8,207.6,221.9,209.8,221.2,211.8z"/>
<path class="st2" d="M181.1,140.9L181.1,140.9c0.9-1.8,3.2-2.6,5.1-1.6l20.9,10.7c1.8,0.9,2.6,3.2,1.6,5.1h0
	c-0.9,1.8-3.2,2.6-5.1,1.6L182.7,146C180.9,145,180.1,142.8,181.1,140.9z"/>
<path class="st2" d="M212.3,69L212.3,69c-1.6,1.4-4,1.2-5.3-0.3l-16.1-18.3c-1.4-1.6-1.2-4,0.3-5.3l0,0c1.6-1.4,4-1.2,5.3,0.3
	l16.1,18.3C214,65.2,213.8,67.6,212.3,69z"/>
<path class="st2" d="M219.5,42.1L219.5,42.1c-2,0.6-4.1-0.6-4.6-2.6v0c-0.6-2,0.6-4.1,2.6-4.6l0,0c2-0.6,4.1,0.6,4.6,2.6v0
	C222.7,39.5,221.5,41.6,219.5,42.1z"/>
<path id="joint_00000056423595153436341080000013486742639678990736_" class="st0" d="M46.3,20c0,0,20,40.7,20,105.2
	s-20,105.2-20,105.2"/>
<path id="joint" class="st0" d="M25,25c0,0,20,38.7,20,100S25,225,25,225"/>
<path class="st1" d="M225,25l-40.1-10.4c-4.3,10.6-8.6,21.2-11.8,31.7c-3.1,10.2-5.4,20.7-6.9,31.2c-1.7,10.5-2.8,21-3.4,31.6
	c-0.6,10.6-0.6,21.2,0,31.7c0.5,10.6,1.6,21.2,3.4,31.6c1.8,10.5,4.4,20.9,6.9,31.2s7.2,21,11.8,31.7L225,225"/>
<path class="st1" d="M25,25l40.2-10.4c4.3,10.6,8.6,21.2,11.8,31.7C80,56.5,82.3,67,83.9,77.5c1.7,10.5,2.8,21,3.4,31.6
	c0.6,10.6,0.6,21.2,0,31.7c-0.5,10.6-1.6,21.2-3.4,31.6c-1.8,10.5-4.4,20.9-6.9,31.2s-7.2,21-11.8,31.7L25,225"/>
<path class="st1" d="M32.1,211.5c0,0.8-0.7,1.4-1.5,1.4c-0.8,0-1.4-0.7-1.4-1.5c0-0.8,0.7-1.4,1.4-1.4
	C31.4,210,32.1,210.6,32.1,211.5C32.1,211.4,32.1,211.4,32.1,211.5L32.1,211.5L32.1,211.5z"/>
<path class="st1" d="M40.1,183.3c0,0.8-0.6,1.4-1.4,1.4s-1.4-0.6-1.4-1.4c0-0.8,0.6-1.4,1.4-1.4l0,0l0,0
	C39.5,181.9,40.1,182.5,40.1,183.3z"/>
<path class="st1" d="M44.9,154.3c0,0.8-0.6,1.4-1.4,1.4c-0.8,0-1.4-0.6-1.4-1.4s0.6-1.4,1.4-1.4l0,0l0,0
	C44.2,152.9,44.9,153.5,44.9,154.3z"/>
<path class="st1" d="M46.4,125c0,0.8-0.6,1.4-1.4,1.4c-0.8,0-1.4-0.6-1.4-1.4c0-0.8,0.6-1.4,1.4-1.4l0,0l0,0
	C45.8,123.6,46.4,124.2,46.4,125z"/>
<path class="st1" d="M44.9,95.7c0,0.8-0.6,1.4-1.4,1.4S42,96.5,42,95.7s0.6-1.4,1.4-1.4l0,0l0,0C44.2,94.3,44.9,94.9,44.9,95.7z"/>
<path class="st1" d="M40.1,66.8c0,0.8-0.6,1.4-1.4,1.4s-1.4-0.6-1.4-1.4s0.6-1.4,1.4-1.4l0,0l0,0C39.5,65.3,40.1,66,40.1,66.8z"/>
<path class="st1" d="M57.1,204c0,0.8-0.7,1.4-1.5,1.4c-0.8,0-1.4-0.7-1.4-1.5c0-0.8,0.7-1.4,1.5-1.4l0,0l0,0
	C56.5,202.5,57.1,203.2,57.1,204z"/>
<path class="st1" d="M63.6,173.9c0,0.8-0.7,1.4-1.5,1.4s-1.4-0.7-1.4-1.5c0-0.8,0.7-1.4,1.5-1.4l0,0l0,0
	C63.1,172.4,63.7,173.1,63.6,173.9z"/>
<path class="st1" d="M67.8,139c0,0.8-0.7,1.4-1.5,1.4c-0.8,0-1.4-0.7-1.4-1.5s0.7-1.4,1.5-1.4l0,0l0,0
	C67.2,137.6,67.8,138.2,67.8,139z"/>
<path class="st1" d="M67.8,108.3c0,0.8-0.7,1.4-1.5,1.4c-0.8,0-1.4-0.7-1.4-1.5c0-0.8,0.7-1.4,1.5-1.4l0,0l0,0
	C67.2,106.8,67.8,107.5,67.8,108.3z"/>
<path class="st1" d="M64.4,77.8c0,0.8-0.7,1.4-1.5,1.4c-0.8,0-1.4-0.7-1.4-1.5c0-0.8,0.7-1.4,1.5-1.4l0,0l0,0
	C63.9,76.3,64.5,77,64.4,77.8z"/>
<path class="st1" d="M32.1,38.5c0,0.8-0.6,1.4-1.4,1.4s-1.4-0.6-1.4-1.4s0.6-1.4,1.4-1.4l0,0l0,0C31.4,37.1,32.1,37.8,32.1,38.5z"/>
<path class="st2" d="M35.3,66.6L35.3,66.6c0.8-1.9,3-2.8,4.9-2.1L63,73.9c1.9,0.8,2.8,3,2.1,4.9l0,0c-0.8,1.9-3,2.8-4.9,2.1
	l-22.8-9.4C35.4,70.7,34.5,68.5,35.3,66.6z"/>
<path class="st2" d="M41.8,152.8L41.8,152.8c1.5-1.5,3.9-1.5,5.3,0l17.3,17.3c1.5,1.5,1.5,3.9,0,5.3l0,0c-1.5,1.5-3.9,1.5-5.3,0
	l-17.3-17.3C40.4,156.7,40.4,154.3,41.8,152.8z"/>
<path class="st2" d="M41.8,124.5L41.8,124.5c1-1.8,3.4-2.4,5.2-1.4L67.6,135c1.8,1,2.4,3.4,1.4,5.2v0c-1,1.8-3.4,2.4-5.2,1.4
	l-20.6-11.9C41.4,128.6,40.8,126.3,41.8,124.5z"/>
<path class="st1" d="M57.8,47.8c0,0.8-0.7,1.4-1.5,1.4c-0.8,0-1.4-0.7-1.4-1.5s0.7-1.4,1.5-1.4l0,0l0,0C57.2,46.3,57.8,47,57.8,47.8
	z"/>
<path class="st2" d="M27.9,38.1L27.9,38.1c0.6-2,2.8-3.1,4.7-2.5L57,43.4c2,0.6,3.1,2.8,2.5,4.7v0c-0.6,2-2.8,3.1-4.7,2.5l-24.3-7.7
	C28.4,42.2,27.3,40.1,27.9,38.1z"/>
<path class="st2" d="M68.1,109L68.1,109c-0.9,1.8-3.2,2.6-5.1,1.6L42.1,99.9c-1.8-0.9-2.6-3.2-1.6-5.1l0,0c0.9-1.8,3.2-2.6,5.1-1.6
	l20.9,10.7C68.3,104.9,69,107.1,68.1,109z"/>
<path class="st2" d="M36.9,180.9L36.9,180.9c1.6-1.4,4-1.2,5.3,0.3l16.1,18.3c1.4,1.6,1.2,4-0.3,5.3l0,0c-1.6,1.4-4,1.2-5.3-0.3
	l-16.1-18.3C35.1,184.7,35.3,182.3,36.9,180.9z"/>
<path class="st2" d="M29.6,207.8L29.6,207.8c2-0.6,4.1,0.6,4.6,2.6h0c0.6,2-0.6,4.1-2.6,4.6h0c-2,0.6-4.1-0.6-4.6-2.6l0,0
	C26.4,210.4,27.6,208.3,29.6,207.8z"/>
</svg>
