<?xml version="1.0" encoding="UTF-8"?>
<svg id="Layer_1" data-name="Layer 1" xmlns="http://www.w3.org/2000/svg" version="1.1" viewBox="0 0 250 250">
  <defs>
    <style>
      .cls-1 {
        stroke: #000;
      }

      .cls-1, .cls-2, .cls-3 {
        fill: none;
        stroke-linecap: round;
      }

      .cls-1, .cls-3 {
        stroke-miterlimit: 10;
      }

      .cls-2 {
        stroke: #bfbfbf;
        stroke-linejoin: round;
        stroke-width: 3px;
      }

      .cls-3 {
        stroke: #777;
        stroke-width: 7.65px;
      }

      .cls-4 {
        fill: #777;
        stroke-width: 0px;
      }
    </style>
  </defs>
  <path id="joint" class="cls-2" d="M25,25s20,38.7,20,100-20,100-20,100"/>
  <path id="joint-2" class="cls-2" d="M225,25s-20,38.8-20,100,20,100,20,100"/>
  <path class="cls-1" d="M225,25l-20.1-10.4c-4.3,10.6-8.6,21.2-11.8,31.7-3.1,10.2-5.4,20.7-6.9,31.2-1.7,10.5-2.8,21-3.4,31.6-.6,10.6-.6,21.2,0,31.7.5,10.6,1.6,21.2,3.4,31.6,1.8,10.5,4.4,20.9,6.9,31.2s7.2,21,11.8,31.7l20.1-10.3"/>
  <path class="cls-1" d="M217.9,38.5c0-.8.7-1.4,1.5-1.4s1.4.7,1.4,1.5-.7,1.4-1.4,1.4c-.8,0-1.5-.6-1.5-1.5q0,.1,0,0h0Z"/>
  <path class="cls-1" d="M209.9,66.7c0-.8.6-1.4,1.4-1.4s1.4.6,1.4,1.4-.6,1.4-1.4,1.4h0c-.8.1-1.4-.6-1.4-1.4Z"/>
  <path class="cls-1" d="M205.1,95.7c0-.8.6-1.4,1.4-1.4s1.4.6,1.4,1.4-.6,1.4-1.4,1.4h0c-.7,0-1.4-.6-1.4-1.4Z"/>
  <path class="cls-1" d="M203.6,125c0-.8.6-1.4,1.4-1.4s1.4.6,1.4,1.4-.6,1.4-1.4,1.4h0c-.8,0-1.4-.6-1.4-1.4Z"/>
  <path class="cls-1" d="M205.1,154.3c0-.8.6-1.4,1.4-1.4s1.4.6,1.4,1.4-.6,1.4-1.4,1.4h0c-.7,0-1.4-.6-1.4-1.4Z"/>
  <path class="cls-1" d="M209.9,183.2c0-.8.6-1.4,1.4-1.4s1.4.6,1.4,1.4-.6,1.4-1.4,1.4h0c-.8.1-1.4-.6-1.4-1.4Z"/>
  <path class="cls-1" d="M217.9,211.5c0-.8.6-1.4,1.4-1.4s1.4.6,1.4,1.4-.6,1.4-1.4,1.4h0c-.7,0-1.4-.7-1.4-1.4Z"/>
  <path class="cls-1" d="M25,25l20.2-10.4c4.3,10.6,8.6,21.2,11.8,31.7,3,10.2,5.3,20.7,6.9,31.2,1.7,10.5,2.8,21,3.4,31.6s.6,21.2,0,31.7c-.5,10.6-1.6,21.2-3.4,31.6-1.8,10.5-4.4,20.9-6.9,31.2s-7.2,21-11.8,31.7l-20.2-10.3"/>
  <path class="cls-1" d="M29.2,38.5c0-.8.7-1.4,1.5-1.4s1.4.7,1.4,1.5-.7,1.4-1.4,1.4c-.9,0-1.5-.6-1.5-1.5q0,.1,0,0h0Z"/>
  <path class="cls-1" d="M37.3,66.7c0-.8.6-1.4,1.4-1.4s1.4.6,1.4,1.4-.6,1.4-1.4,1.4h0c-.7.1-1.4-.6-1.4-1.4Z"/>
  <path class="cls-1" d="M42,95.7c0-.8.6-1.4,1.4-1.4s1.4.6,1.4,1.4-.6,1.4-1.4,1.4h0c-.8,0-1.4-.6-1.4-1.4Z"/>
  <path class="cls-1" d="M43.6,125c0-.8.6-1.4,1.4-1.4s1.4.6,1.4,1.4-.6,1.4-1.4,1.4h0c-.8,0-1.4-.6-1.4-1.4Z"/>
  <path class="cls-1" d="M42,154.3c0-.8.6-1.4,1.4-1.4s1.4.6,1.4,1.4-.6,1.4-1.4,1.4h0c-.8,0-1.4-.6-1.4-1.4Z"/>
  <path class="cls-1" d="M37.3,183.2c0-.8.6-1.4,1.4-1.4s1.4.6,1.4,1.4-.6,1.4-1.4,1.4h0c-.7.1-1.4-.6-1.4-1.4Z"/>
  <path class="cls-1" d="M29.2,211.5c0-.8.6-1.4,1.4-1.4s1.4.6,1.4,1.4-.6,1.4-1.4,1.4h0c-.7,0-1.4-.7-1.4-1.4Z"/>
  <path class="cls-4" d="M39.7,69.8h0c-2,.6-4.1-.6-4.6-2.6l-7.5-26.9c-.6-2,.6-4.1,2.6-4.6h0c2-.6,4.1.6,4.6,2.6l7.5,26.9c.6,2-.6,4-2.6,4.6Z"/>
  <path class="cls-4" d="M38.4,186.6h0c2.1.3,4-1.1,4.3-3.2l4.3-27.6c.3-2.1-1.1-4-3.2-4.3h0c-2.1-.3-4,1.1-4.3,3.2l-4.3,27.6c-.3,2.1,1.1,4,3.2,4.3Z"/>
  <path class="cls-4" d="M45,128.1h0c-2.1.1-3.9-1.5-3.9-3.6l-1.3-27.9c-.1-2.1,1.5-3.9,3.6-3.9h0c2.1-.1,3.9,1.5,3.9,3.6l1.3,27.9c.1,2.1-1.6,3.8-3.6,3.9Z"/>
  <path class="cls-4" d="M31.6,215.1h0c-2,.6-4.1-.6-4.6-2.6h0c-.6-2,.6-4.1,2.6-4.6h0c2-.6,4.1.6,4.6,2.6h0c.6,2-.6,4-2.6,4.6Z"/>
  <line class="cls-3" x1="38.7" y1="66.7" x2="43.4" y2="95.7"/>
  <line class="cls-3" x1="45" y1="125" x2="43.4" y2="154.3"/>
  <line class="cls-3" x1="38.7" y1="183.2" x2="30.6" y2="211.5"/>
  <path class="cls-4" d="M207.47,65.2l7.5-26.9c.5-2,2.6-3.2,4.6-2.6h0c2,.5,3.2,2.6,2.6,4.6l-7.5,26.9c-.5,2-2.6,3.2-4.6,2.6h0c-2-.6-3.2-2.6-2.6-4.6Z"/>
  <path class="cls-4" d="M214.57,182.3l-4.3-27.6c-.3-2.1-2.2-3.5-4.3-3.2h0c-2.1.3-3.5,2.2-3.2,4.3l4.3,27.6c.3,2.1,2.2,3.5,4.3,3.2h0c2.1-.3,3.5-2.2,3.2-4.3Z"/>
  <path class="cls-4" d="M201.17,124.2l1.3-27.9c0-2.1,1.8-3.7,3.9-3.6h0c2.1,0,3.7,1.8,3.6,3.9l-1.3,27.9c0,2.1-1.8,3.7-3.9,3.6h0c-2-.1-3.7-1.8-3.6-3.9Z"/>
  <line class="cls-3" x1="211.07" y1="66.7" x2="206.37" y2="95.7"/>
  <line class="cls-3" x1="204.77" y1="125" x2="206.37" y2="154.3"/>
  <line class="cls-3" x1="211.07" y1="183.2" x2="219.17" y2="211.5"/>
  <path class="cls-3" d="M206.55,95.7"/>
  <path class="cls-3" d="M205,125"/>
  <path class="cls-3" d="M219.8,38.4"/>
</svg>