<?xml version="1.0" encoding="utf-8"?>
<!-- Generator: Adobe Illustrator 26.2.1, SVG Export Plug-In . SVG Version: 6.00 Build 0)  -->
<svg version="1.1" id="Layer_1" xmlns="http://www.w3.org/2000/svg" xmlns:xlink="http://www.w3.org/1999/xlink" x="0px" y="0px"
	 viewBox="0 0 250 250" style="enable-background:new 0 0 250 250;" xml:space="preserve">
<style type="text/css">
	.st0{fill:none;stroke:#BFBFBF;stroke-width:3;stroke-linecap:round;stroke-linejoin:round;}
	.st1{fill:none;stroke:#000000;stroke-linecap:round;stroke-miterlimit:10;}
	.st2{fill:#777777;}
</style>
<path id="joint" class="st0" d="M25,25c0,0,20,38.7,20,100S25,225,25,225"/>
<path id="joint-2" class="st0" d="M225,25c0,0-20,38.8-20,100s20,100,20,100"/>
<path class="st1" d="M225,25l-20.1-10.4c-4.3,10.6-8.6,21.2-11.8,31.7c-3.1,10.2-5.4,20.7-6.9,31.2c-1.7,10.5-2.8,21-3.4,31.6
	c-0.6,10.6-0.6,21.2,0,31.7c0.5,10.6,1.6,21.2,3.4,31.6c1.8,10.5,4.4,20.9,6.9,31.2s7.2,21,11.8,31.7L225,225"/>
<path class="st1" d="M217.9,38.5c0-0.8,0.7-1.4,1.5-1.4c0.8,0,1.4,0.7,1.4,1.5c0,0.8-0.7,1.4-1.4,1.4
	C218.6,40,217.9,39.4,217.9,38.5C217.9,38.6,217.9,38.6,217.9,38.5L217.9,38.5L217.9,38.5z"/>
<path class="st1" d="M209.9,66.7c0-0.8,0.6-1.4,1.4-1.4c0.8,0,1.4,0.6,1.4,1.4c0,0.8-0.6,1.4-1.4,1.4l0,0l0,0
	C210.5,68.2,209.9,67.5,209.9,66.7z"/>
<path class="st1" d="M205.1,95.7c0-0.8,0.6-1.4,1.4-1.4c0.8,0,1.4,0.6,1.4,1.4c0,0.8-0.6,1.4-1.4,1.4l0,0l0,0
	C205.8,97.1,205.1,96.5,205.1,95.7z"/>
<path class="st1" d="M203.6,125c0-0.8,0.6-1.4,1.4-1.4c0.8,0,1.4,0.6,1.4,1.4c0,0.8-0.6,1.4-1.4,1.4l0,0l0,0
	C204.2,126.4,203.6,125.8,203.6,125z"/>
<path class="st1" d="M205.1,154.3c0-0.8,0.6-1.4,1.4-1.4s1.4,0.6,1.4,1.4s-0.6,1.4-1.4,1.4l0,0l0,0
	C205.8,155.7,205.1,155.1,205.1,154.3z"/>
<path class="st1" d="M209.9,183.2c0-0.8,0.6-1.4,1.4-1.4s1.4,0.6,1.4,1.4s-0.6,1.4-1.4,1.4l0,0l0,0
	C210.5,184.7,209.9,184,209.9,183.2z"/>
<path class="st1" d="M217.9,211.5c0-0.8,0.6-1.4,1.4-1.4s1.4,0.6,1.4,1.4s-0.6,1.4-1.4,1.4l0,0l0,0
	C218.6,212.9,217.9,212.2,217.9,211.5z"/>
<path class="st1" d="M25,25l20.2-10.4c4.3,10.6,8.6,21.2,11.8,31.7C60,56.5,62.3,67,63.9,77.5c1.7,10.5,2.8,21,3.4,31.6
	c0.6,10.6,0.6,21.2,0,31.7c-0.5,10.6-1.6,21.2-3.4,31.6c-1.8,10.5-4.4,20.9-6.9,31.2s-7.2,21-11.8,31.7L25,225"/>
<path class="st1" d="M29.2,38.5c0-0.8,0.7-1.4,1.5-1.4c0.8,0,1.4,0.7,1.4,1.5c0,0.8-0.7,1.4-1.4,1.4C29.8,40,29.2,39.4,29.2,38.5
	C29.2,38.6,29.2,38.6,29.2,38.5L29.2,38.5L29.2,38.5z"/>
<path class="st1" d="M37.3,66.7c0-0.8,0.6-1.4,1.4-1.4c0.8,0,1.4,0.6,1.4,1.4c0,0.8-0.6,1.4-1.4,1.4h0l0,0
	C38,68.2,37.3,67.5,37.3,66.7z"/>
<path class="st1" d="M42,95.7c0-0.8,0.6-1.4,1.4-1.4c0.8,0,1.4,0.6,1.4,1.4c0,0.8-0.6,1.4-1.4,1.4h0l0,0C42.6,97.1,42,96.5,42,95.7z
	"/>
<path class="st1" d="M43.6,125c0-0.8,0.6-1.4,1.4-1.4c0.8,0,1.4,0.6,1.4,1.4c0,0.8-0.6,1.4-1.4,1.4c0,0,0,0,0,0l0,0
	C44.2,126.4,43.6,125.8,43.6,125z"/>
<path class="st1" d="M42,154.3c0-0.8,0.6-1.4,1.4-1.4s1.4,0.6,1.4,1.4s-0.6,1.4-1.4,1.4h0l0,0C42.6,155.7,42,155.1,42,154.3z"/>
<path class="st1" d="M37.3,183.2c0-0.8,0.6-1.4,1.4-1.4s1.4,0.6,1.4,1.4s-0.6,1.4-1.4,1.4h0l0,0C38,184.7,37.3,184,37.3,183.2z"/>
<path class="st1" d="M29.2,211.5c0-0.8,0.6-1.4,1.4-1.4s1.4,0.6,1.4,1.4c0,0.8-0.6,1.4-1.4,1.4h0l0,0
	C29.9,212.9,29.2,212.2,29.2,211.5z"/>
<path class="st2" d="M39.7,69.8L39.7,69.8c-2,0.6-4.1-0.6-4.6-2.6l-7.5-26.9c-0.6-2,0.6-4.1,2.6-4.6h0c2-0.6,4.1,0.6,4.6,2.6
	l7.5,26.9C42.9,67.2,41.7,69.2,39.7,69.8z"/>
<path class="st2" d="M38.4,186.6L38.4,186.6c2.1,0.3,4-1.1,4.3-3.2l4.3-27.6c0.3-2.1-1.1-4-3.2-4.3h0c-2.1-0.3-4,1.1-4.3,3.2
	l-4.3,27.6C34.9,184.4,36.3,186.3,38.4,186.6z"/>
<path class="st2" d="M45,128.1L45,128.1c-2.1,0.1-3.9-1.5-3.9-3.6l-1.3-27.9c-0.1-2.1,1.5-3.9,3.6-3.9h0c2.1-0.1,3.9,1.5,3.9,3.6
	l1.3,27.9C48.7,126.3,47,128,45,128.1z"/>
<path class="st2" d="M31.6,215.1L31.6,215.1c-2,0.6-4.1-0.6-4.6-2.6h0c-0.6-2,0.6-4.1,2.6-4.6h0c2-0.6,4.1,0.6,4.6,2.6l0,0
	C34.8,212.5,33.6,214.5,31.6,215.1z"/>
<path class="st2" d="M210.7,180.1L210.7,180.1c2-0.6,4.1,0.6,4.6,2.6l7.5,26.9c0.6,2-0.6,4.1-2.6,4.6l0,0c-2,0.6-4.1-0.6-4.6-2.6
	l-7.5-26.9C207.5,182.8,208.7,180.7,210.7,180.1z"/>
<path class="st2" d="M212,63.3L212,63.3c-2.1-0.3-4,1.1-4.3,3.2l-4.3,27.6c-0.3,2.1,1.1,4,3.2,4.3h0c2.1,0.3,4-1.1,4.3-3.2l4.3-27.6
	C215.5,65.6,214.1,63.6,212,63.3z"/>
<path class="st2" d="M205.4,121.8L205.4,121.8c2.1-0.1,3.9,1.5,3.9,3.6l1.3,27.9c0.1,2.1-1.5,3.9-3.6,3.9h0
	c-2.1,0.1-3.9-1.5-3.9-3.6l-1.3-27.9C201.7,123.7,203.4,121.9,205.4,121.8z"/>
<path class="st2" d="M218.8,34.8L218.8,34.8c2-0.6,4.1,0.6,4.6,2.6v0c0.6,2-0.6,4.1-2.6,4.6l0,0c-2,0.6-4.1-0.6-4.6-2.6l0,0
	C215.6,37.5,216.8,35.4,218.8,34.8z"/>
</svg>
