<?xml version="1.0" encoding="utf-8"?>
<!-- Generator: Adobe Illustrator 26.2.1, SVG Export Plug-In . SVG Version: 6.00 Build 0)  -->
<svg version="1.1" id="Layer_1" xmlns="http://www.w3.org/2000/svg" xmlns:xlink="http://www.w3.org/1999/xlink" x="0px" y="0px"
	 viewBox="0 0 250 250" style="enable-background:new 0 0 250 250;" xml:space="preserve">
<style type="text/css">
	.st0{fill:none;stroke:#BFBFBF;stroke-width:3;stroke-linecap:round;stroke-linejoin:round;}
	.st1{fill:none;stroke:#000000;stroke-linecap:round;stroke-miterlimit:10;}
	.st2{fill:#777777;}
</style>
<path id="joint_00000160886516889177164960000000744012790788457655_" class="st0" d="M203.7,230.3c0,0-20-40.7-20-105.2
	s20-105.2,20-105.2"/>
<path id="joint_00000021084225701306182320000004267776840773010580_" class="st0" d="M225,225.3c0,0-20-38.7-20-100s20-100,20-100"
	/>
<path class="st1" d="M209.9,67.1c0-0.8,0.6-1.4,1.4-1.4c0.8,0,1.4,0.6,1.4,1.4c0,0.8-0.6,1.4-1.4,1.4l0,0l0,0
	C210.5,68.5,209.9,67.8,209.9,67.1z"/>
<path class="st1" d="M205.1,96c0-0.8,0.6-1.4,1.4-1.4c0.8,0,1.4,0.6,1.4,1.4c0,0.8-0.6,1.4-1.4,1.4l0,0l0,0
	C205.8,97.4,205.1,96.8,205.1,96z"/>
<path class="st1" d="M203.6,125.3c0-0.8,0.6-1.4,1.4-1.4c0.8,0,1.4,0.6,1.4,1.4c0,0.8-0.6,1.4-1.4,1.4l0,0l0,0
	C204.2,126.8,203.6,126.1,203.6,125.3z"/>
<path class="st1" d="M205.1,154.6c0-0.8,0.6-1.4,1.4-1.4s1.4,0.6,1.4,1.4s-0.6,1.4-1.4,1.4l0,0l0,0
	C205.8,156.1,205.1,155.4,205.1,154.6z"/>
<path class="st1" d="M209.9,183.6c0-0.8,0.6-1.4,1.4-1.4s1.4,0.6,1.4,1.4s-0.6,1.4-1.4,1.4l0,0l0,0
	C210.5,185,209.9,184.4,209.9,183.6z"/>
<path class="st1" d="M192.9,46.4c0-0.8,0.7-1.4,1.5-1.4c0.8,0,1.4,0.7,1.4,1.5c0,0.8-0.7,1.4-1.5,1.4l0,0l0,0
	C193.5,47.8,192.9,47.1,192.9,46.4z"/>
<path class="st1" d="M186.4,76.5c0-0.8,0.7-1.4,1.5-1.4c0.8,0,1.4,0.7,1.4,1.5c0,0.8-0.7,1.4-1.5,1.4l0,0l0,0
	C186.9,77.9,186.3,77.2,186.4,76.5z"/>
<path class="st1" d="M182.2,111.3c0-0.8,0.7-1.4,1.5-1.4c0.8,0,1.4,0.7,1.4,1.5c0,0.8-0.7,1.4-1.5,1.4l0,0l0,0
	C182.8,112.8,182.2,112.1,182.2,111.3z"/>
<path class="st1" d="M182.2,142.1c0-0.8,0.7-1.4,1.5-1.4c0.8,0,1.4,0.7,1.4,1.5c0,0.8-0.7,1.4-1.5,1.4l0,0l0,0
	C182.8,143.5,182.2,142.9,182.2,142.1z"/>
<path class="st1" d="M185.6,172.6c0-0.8,0.7-1.4,1.5-1.4c0.8,0,1.4,0.7,1.4,1.5s-0.7,1.4-1.5,1.4l0,0l0,0
	C186.1,174,185.5,173.3,185.6,172.6z"/>
<path class="st2" d="M214.7,183.7L214.7,183.7c-0.8,1.9-3,2.8-4.9,2.1l-22.8-9.4c-1.9-0.8-2.8-3-2.1-4.9v0c0.8-1.9,3-2.8,4.9-2.1
	l22.8,9.4C214.6,179.6,215.5,181.8,214.7,183.7z"/>
<path class="st2" d="M208.2,97.5L208.2,97.5c-1.5,1.5-3.9,1.5-5.3,0l-17.3-17.3c-1.5-1.5-1.5-3.9,0-5.3l0,0c1.5-1.5,3.9-1.5,5.3,0
	l17.3,17.3C209.6,93.6,209.6,96,208.2,97.5z"/>
<path class="st2" d="M208.2,125.8L208.2,125.8c-1,1.8-3.4,2.4-5.2,1.4l-20.6-11.9c-1.8-1-2.4-3.4-1.4-5.2l0,0c1-1.8,3.4-2.4,5.2-1.4
	l20.6,11.9C208.6,121.7,209.2,124,208.2,125.8z"/>
<path class="st1" d="M192.2,202.6c0-0.8,0.7-1.4,1.5-1.4s1.4,0.7,1.4,1.5s-0.7,1.4-1.5,1.4l0,0l0,0
	C192.8,204,192.2,203.3,192.2,202.6z"/>
<path class="st2" d="M222.1,212.2L222.1,212.2c-0.6,2-2.8,3.1-4.7,2.5L193,207c-2-0.6-3.1-2.8-2.5-4.7h0c0.6-2,2.8-3.1,4.7-2.5
	l24.3,7.7C221.6,208.1,222.7,210.2,222.1,212.2z"/>
<path class="st2" d="M181.9,141.3L181.9,141.3c0.9-1.8,3.2-2.6,5.1-1.6l20.9,10.7c1.8,0.9,2.6,3.2,1.6,5.1l0,0
	c-0.9,1.8-3.2,2.6-5.1,1.6l-20.9-10.7C181.7,145.5,181,143.2,181.9,141.3z"/>
<path class="st2" d="M213.1,69.4L213.1,69.4c-1.6,1.4-4,1.2-5.3-0.3l-16.1-18.3c-1.4-1.6-1.2-4,0.3-5.3l0,0c1.6-1.4,4-1.2,5.3,0.3
	l16.1,18.3C214.9,65.6,214.7,68,213.1,69.4z"/>
<path class="st2" d="M220.4,42.6L220.4,42.6c-2,0.6-4.1-0.6-4.6-2.6v0c-0.6-2,0.6-4.1,2.6-4.6l0,0c2-0.6,4.1,0.6,4.6,2.6v0
	C223.6,39.9,222.4,42,220.4,42.6z"/>
<path class="st2" d="M213,180L213,180c1.6,1.3,1.9,3.7,0.6,5.3l-15.1,19.2c-1.3,1.6-3.7,1.9-5.3,0.6v0c-1.6-1.3-1.9-3.7-0.6-5.3
	l15.1-19.2C208.9,179,211.3,178.7,213,180z"/>
<path class="st2" d="M208,152.3L208,152.3c1.5,1.5,1.5,3.9,0,5.3l-17.3,17.3c-1.5,1.5-3.9,1.5-5.3,0l0,0c-1.5-1.5-1.5-3.9,0-5.3
	l17.3-17.3C204.1,150.8,206.5,150.8,208,152.3z"/>
<path class="st2" d="M206.6,121.7L206.6,121.7c1.5,1.5,1.5,3.9,0,5.3l-17.3,17.3c-1.5,1.5-3.9,1.5-5.3,0l0,0c-1.5-1.5-1.5-3.9,0-5.3
	l17.3-17.3C202.8,120.2,205.2,120.2,206.6,121.7z"/>
<path class="st2" d="M208.6,93L208.6,93c1.2,1.7,0.9,4.1-0.8,5.3l-21.6,15.8c-1.7,1.2-4.1,0.9-5.3-0.8v0c-1.2-1.7-0.9-4.1,0.8-5.3
	l21.6-15.8C205,91,207.4,91.4,208.6,93z"/>
<path class="st2" d="M214.6,67.1L214.6,67.1c0.8,1.9-0.1,4.1-2.1,4.9L190,81.3c-1.9,0.8-4.1-0.1-4.9-2.1v0c-0.8-1.9,0.1-4.1,2.1-4.9
	l22.6-9.3C211.6,64.2,213.8,65.1,214.6,67.1z"/>
<path class="st2" d="M222.7,37.2L222.7,37.2c0.8,1.9-0.1,4.1-2.1,4.9l-22.6,9.3c-1.9,0.8-4.1-0.1-4.9-2.1v0
	c-0.8-1.9,0.1-4.1,2.1-4.9l22.6-9.3C219.7,34.4,221.9,35.3,222.7,37.2z"/>
<path id="joint_00000056423595153436341080000013486742639678990736_" class="st0" d="M46.3,20c0,0,20,40.7,20,105.2
	s-20,105.2-20,105.2"/>
<path id="joint" class="st0" d="M25,25c0,0,20,38.7,20,100S25,225,25,225"/>
<path class="st1" d="M225,25l-40.1-10.4c-4.3,10.6-8.6,21.2-11.8,31.7c-3.1,10.2-5.4,20.7-6.9,31.2c-1.7,10.5-2.8,21-3.4,31.6
	c-0.6,10.6-0.6,21.2,0,31.7c0.5,10.6,1.6,21.2,3.4,31.6c1.8,10.5,4.4,20.9,6.9,31.2s7.2,21,11.8,31.7L225,225"/>
<path class="st1" d="M25,25l40.2-10.4c4.3,10.6,8.6,21.2,11.8,31.7C80,56.5,82.3,67,83.9,77.5c1.7,10.5,2.8,21,3.4,31.6
	c0.6,10.6,0.6,21.2,0,31.7c-0.5,10.6-1.6,21.2-3.4,31.6c-1.8,10.5-4.4,20.9-6.9,31.2s-7.2,21-11.8,31.7L25,225"/>
<path class="st1" d="M32.1,211.5c0,0.8-0.7,1.4-1.5,1.4c-0.8,0-1.4-0.7-1.4-1.5c0-0.8,0.7-1.4,1.4-1.4
	C31.4,210,32.1,210.6,32.1,211.5C32.1,211.4,32.1,211.4,32.1,211.5L32.1,211.5L32.1,211.5z"/>
<path class="st1" d="M40.1,183.3c0,0.8-0.6,1.4-1.4,1.4s-1.4-0.6-1.4-1.4c0-0.8,0.6-1.4,1.4-1.4l0,0l0,0
	C39.5,181.9,40.1,182.5,40.1,183.3z"/>
<path class="st1" d="M44.9,154.3c0,0.8-0.6,1.4-1.4,1.4c-0.8,0-1.4-0.6-1.4-1.4s0.6-1.4,1.4-1.4l0,0l0,0
	C44.2,152.9,44.9,153.5,44.9,154.3z"/>
<path class="st1" d="M46.4,125c0,0.8-0.6,1.4-1.4,1.4c-0.8,0-1.4-0.6-1.4-1.4c0-0.8,0.6-1.4,1.4-1.4l0,0l0,0
	C45.8,123.6,46.4,124.2,46.4,125z"/>
<path class="st1" d="M44.9,95.7c0,0.8-0.6,1.4-1.4,1.4S42,96.5,42,95.7s0.6-1.4,1.4-1.4l0,0l0,0C44.2,94.3,44.9,94.9,44.9,95.7z"/>
<path class="st1" d="M40.1,66.8c0,0.8-0.6,1.4-1.4,1.4s-1.4-0.6-1.4-1.4s0.6-1.4,1.4-1.4l0,0l0,0C39.5,65.3,40.1,66,40.1,66.8z"/>
<path class="st1" d="M57.1,204c0,0.8-0.7,1.4-1.5,1.4c-0.8,0-1.4-0.7-1.4-1.5c0-0.8,0.7-1.4,1.5-1.4l0,0l0,0
	C56.5,202.5,57.1,203.2,57.1,204z"/>
<path class="st1" d="M63.6,173.9c0,0.8-0.7,1.4-1.5,1.4s-1.4-0.7-1.4-1.5c0-0.8,0.7-1.4,1.5-1.4l0,0l0,0
	C63.1,172.4,63.7,173.1,63.6,173.9z"/>
<path class="st1" d="M67.8,139c0,0.8-0.7,1.4-1.5,1.4c-0.8,0-1.4-0.7-1.4-1.5s0.7-1.4,1.5-1.4l0,0l0,0
	C67.2,137.6,67.8,138.2,67.8,139z"/>
<path class="st1" d="M67.8,108.3c0,0.8-0.7,1.4-1.5,1.4c-0.8,0-1.4-0.7-1.4-1.5c0-0.8,0.7-1.4,1.5-1.4l0,0l0,0
	C67.2,106.8,67.8,107.5,67.8,108.3z"/>
<path class="st1" d="M64.4,77.8c0,0.8-0.7,1.4-1.5,1.4c-0.8,0-1.4-0.7-1.4-1.5c0-0.8,0.7-1.4,1.5-1.4l0,0l0,0
	C63.9,76.3,64.5,77,64.4,77.8z"/>
<path class="st1" d="M32.1,38.5c0,0.8-0.6,1.4-1.4,1.4s-1.4-0.6-1.4-1.4s0.6-1.4,1.4-1.4l0,0l0,0C31.4,37.1,32.1,37.8,32.1,38.5z"/>
<path class="st2" d="M35.3,66.6L35.3,66.6c0.8-1.9,3-2.8,4.9-2.1L63,73.9c1.9,0.8,2.8,3,2.1,4.9l0,0c-0.8,1.9-3,2.8-4.9,2.1
	l-22.8-9.4C35.4,70.7,34.5,68.5,35.3,66.6z"/>
<path class="st2" d="M41.8,152.8L41.8,152.8c1.5-1.5,3.9-1.5,5.3,0l17.3,17.3c1.5,1.5,1.5,3.9,0,5.3l0,0c-1.5,1.5-3.9,1.5-5.3,0
	l-17.3-17.3C40.4,156.7,40.4,154.3,41.8,152.8z"/>
<path class="st2" d="M41.8,124.5L41.8,124.5c1-1.8,3.4-2.4,5.2-1.4L67.6,135c1.8,1,2.4,3.4,1.4,5.2v0c-1,1.8-3.4,2.4-5.2,1.4
	l-20.6-11.9C41.4,128.6,40.8,126.3,41.8,124.5z"/>
<path class="st1" d="M57.8,47.8c0,0.8-0.7,1.4-1.5,1.4c-0.8,0-1.4-0.7-1.4-1.5s0.7-1.4,1.5-1.4l0,0l0,0C57.2,46.3,57.8,47,57.8,47.8
	z"/>
<path class="st2" d="M27.9,38.1L27.9,38.1c0.6-2,2.8-3.1,4.7-2.5L57,43.4c2,0.6,3.1,2.8,2.5,4.7v0c-0.6,2-2.8,3.1-4.7,2.5l-24.3-7.7
	C28.4,42.2,27.3,40.1,27.9,38.1z"/>
<path class="st2" d="M68.1,109L68.1,109c-0.9,1.8-3.2,2.6-5.1,1.6L42.1,99.9c-1.8-0.9-2.6-3.2-1.6-5.1l0,0c0.9-1.8,3.2-2.6,5.1-1.6
	l20.9,10.7C68.3,104.9,69,107.1,68.1,109z"/>
<path class="st2" d="M36.9,180.9L36.9,180.9c1.6-1.4,4-1.2,5.3,0.3l16.1,18.3c1.4,1.6,1.2,4-0.3,5.3l0,0c-1.6,1.4-4,1.2-5.3-0.3
	l-16.1-18.3C35.1,184.7,35.3,182.3,36.9,180.9z"/>
<path class="st2" d="M29.6,207.8L29.6,207.8c2-0.6,4.1,0.6,4.6,2.6h0c0.6,2-0.6,4.1-2.6,4.6h0c-2,0.6-4.1-0.6-4.6-2.6l0,0
	C26.4,210.4,27.6,208.3,29.6,207.8z"/>
<path class="st2" d="M37,70.3L37,70.3c-1.6-1.3-1.9-3.7-0.6-5.3l15.1-19.2c1.3-1.6,3.7-1.9,5.3-0.6l0,0c1.6,1.3,1.9,3.7,0.6,5.3
	L42.3,69.7C41.1,71.3,38.7,71.6,37,70.3z"/>
<path class="st2" d="M42,98L42,98c-1.5-1.5-1.5-3.9,0-5.3l17.3-17.3c1.5-1.5,3.9-1.5,5.3,0l0,0c1.5,1.5,1.5,3.9,0,5.3L47.3,98
	C45.9,99.5,43.5,99.5,42,98z"/>
<path class="st2" d="M43.4,128.6L43.4,128.6c-1.5-1.5-1.5-3.9,0-5.3L60.6,106c1.5-1.5,3.9-1.5,5.3,0l0,0c1.5,1.5,1.5,3.9,0,5.3
	l-17.3,17.3C47.2,130.1,44.8,130.1,43.4,128.6z"/>
<path class="st2" d="M41.4,157.3L41.4,157.3c-1.2-1.7-0.9-4.1,0.8-5.3l21.6-15.8c1.7-1.2,4.1-0.9,5.3,0.8h0c1.2,1.7,0.9,4.1-0.8,5.3
	l-21.6,15.8C45,159.3,42.6,159,41.4,157.3z"/>
<path class="st2" d="M35.4,183.3L35.4,183.3c-0.8-1.9,0.1-4.1,2.1-4.9L60,169c1.9-0.8,4.1,0.1,4.9,2.1l0,0c0.8,1.9-0.1,4.1-2.1,4.9
	l-22.6,9.3C38.4,186.1,36.2,185.2,35.4,183.3z"/>
<path class="st2" d="M27.3,213.1L27.3,213.1c-0.8-1.9,0.1-4.1,2.1-4.9l22.6-9.3c1.9-0.8,4.1,0.1,4.9,2.1h0c0.8,1.9-0.1,4.1-2.1,4.9
	l-22.6,9.3C30.3,216,28.1,215.1,27.3,213.1z"/>
</svg>
