<?xml version="1.0" encoding="utf-8"?>
<!-- Generator: Adobe Illustrator 26.2.1, SVG Export Plug-In . SVG Version: 6.00 Build 0)  -->
<svg version="1.1" id="Layer_1" xmlns="http://www.w3.org/2000/svg" xmlns:xlink="http://www.w3.org/1999/xlink" x="0px" y="0px"
	 viewBox="0 0 16 16" style="enable-background:new 0 0 16 16;" xml:space="preserve">
<g>
	<path d="M3,14.6c2.4-2,4.1-4.9,5-8.6c0.9,3.8,2.5,6.7,4.9,8.6H3z"/>
	<path d="M8,8.5c0.8,2.1,1.8,3.9,3.2,5.4H4.8C6.2,12.4,7.2,10.6,8,8.5 M8,0.8c-0.1,2-0.5,9.5-5.7,13.5c-0.4,0.3-0.2,1,0.4,1h10.7
		c0.5,0,0.8-0.7,0.4-1C8.5,10.3,8.1,2.8,8,0.8L8,0.8z"/>
</g>
</svg>
