solid JSCAD
facet normal 0 0 -1
outer loop
vertex 0 0 -2.5500121760623338
vertex 1.8500162487463943 3.2043123490739283 -2.5500121760623338
vertex 3.699969468866162 0 -2.5500121760623338
endloop
endfacet
facet normal 0.8660321185983757 0.4999883694207385 0
outer loop
vertex 1.8500162487463943 3.2043123490739283 -2.5500121760623338
vertex 1.8500162487463943 3.2043123490739283 2.5500121760623338
vertex 3.699969468866162 0 2.5500121760623338
endloop
endfacet
facet normal 0.8660321185983757 0.4999883694207385 0
outer loop
vertex 1.8500162487463943 3.2043123490739283 -2.5500121760623338
vertex 3.699969468866162 0 2.5500121760623338
vertex 3.699969468866162 0 -2.5500121760623338
endloop
endfacet
facet normal 0 0 1
outer loop
vertex 0 0 2.5500121760623338
vertex 3.699969468866162 0 2.5500121760623338
vertex 1.8500162487463943 3.2043123490739283 2.5500121760623338
endloop
endfacet
facet normal 0 0 -1
outer loop
vertex 0 0 -2.5500121760623338
vertex -1.8500162487463943 3.2043123490739283 -2.5500121760623338
vertex 1.8500162487463943 3.2043123490739283 -2.5500121760623338
endloop
endfacet
facet normal 0 1 0
outer loop
vertex -1.8500162487463943 3.2043123490739283 -2.5500121760623338
vertex -1.8500162487463943 3.2043123490739283 2.5500121760623338
vertex 1.8500162487463943 3.2043123490739283 2.5500121760623338
endloop
endfacet
facet normal 0 1 0
outer loop
vertex -1.8500162487463943 3.2043123490739283 -2.5500121760623338
vertex 1.8500162487463943 3.2043123490739283 2.5500121760623338
vertex 1.8500162487463943 3.2043123490739283 -2.5500121760623338
endloop
endfacet
facet normal 0 0 1
outer loop
vertex 0 0 2.5500121760623338
vertex 1.8500162487463943 3.2043123490739283 2.5500121760623338
vertex -1.8500162487463943 3.2043123490739283 2.5500121760623338
endloop
endfacet
facet normal 0 0 -1
outer loop
vertex 0 0 -2.5500121760623338
vertex -3.699969468866162 0 -2.5500121760623338
vertex -1.8500162487463943 3.2043123490739283 -2.5500121760623338
endloop
endfacet
facet normal -0.8660321185983757 0.4999883694207385 0
outer loop
vertex -3.699969468866162 0 -2.5500121760623338
vertex -3.699969468866162 0 2.5500121760623338
vertex -1.8500162487463943 3.2043123490739283 2.5500121760623338
endloop
endfacet
facet normal -0.8660321185983757 0.4999883694207385 0
outer loop
vertex -3.699969468866162 0 -2.5500121760623338
vertex -1.8500162487463943 3.2043123490739283 2.5500121760623338
vertex -1.8500162487463943 3.2043123490739283 -2.5500121760623338
endloop
endfacet
facet normal 0 0 1
outer loop
vertex 0 0 2.5500121760623338
vertex -1.8500162487463943 3.2043123490739283 2.5500121760623338
vertex -3.699969468866162 0 2.5500121760623338
endloop
endfacet
facet normal 0 0 -1
outer loop
vertex 0 0 -2.5500121760623338
vertex -1.8500162487463943 -3.2043123490739283 -2.5500121760623338
vertex -3.699969468866162 0 -2.5500121760623338
endloop
endfacet
facet normal -0.8660321185983757 -0.4999883694207385 0
outer loop
vertex -1.8500162487463943 -3.2043123490739283 -2.5500121760623338
vertex -1.8500162487463943 -3.2043123490739283 2.5500121760623338
vertex -3.699969468866162 0 2.5500121760623338
endloop
endfacet
facet normal -0.8660321185983757 -0.4999883694207385 0
outer loop
vertex -1.8500162487463943 -3.2043123490739283 -2.5500121760623338
vertex -3.699969468866162 0 2.5500121760623338
vertex -3.699969468866162 0 -2.5500121760623338
endloop
endfacet
facet normal 0 0 1
outer loop
vertex 0 0 2.5500121760623338
vertex -3.699969468866162 0 2.5500121760623338
vertex -1.8500162487463943 -3.2043123490739283 2.5500121760623338
endloop
endfacet
facet normal 0 0 -1
outer loop
vertex 0 0 -2.5500121760623338
vertex 1.8500162487463943 -3.2043123490739283 -2.5500121760623338
vertex -1.8500162487463943 -3.2043123490739283 -2.5500121760623338
endloop
endfacet
facet normal 0 -1 0
outer loop
vertex 1.8500162487463943 -3.2043123490739283 -2.5500121760623338
vertex 1.8500162487463943 -3.2043123490739283 2.5500121760623338
vertex -1.8500162487463943 -3.2043123490739283 2.5500121760623338
endloop
endfacet
facet normal 0 -1 0
outer loop
vertex 1.8500162487463943 -3.2043123490739283 -2.5500121760623338
vertex -1.8500162487463943 -3.2043123490739283 2.5500121760623338
vertex -1.8500162487463943 -3.2043123490739283 -2.5500121760623338
endloop
endfacet
facet normal 0 0 1
outer loop
vertex 0 0 2.5500121760623338
vertex -1.8500162487463943 -3.2043123490739283 2.5500121760623338
vertex 1.8500162487463943 -3.2043123490739283 2.5500121760623338
endloop
endfacet
facet normal 0 0 -1
outer loop
vertex 0 0 -2.5500121760623338
vertex 3.699969468866162 0 -2.5500121760623338
vertex 1.8500162487463943 -3.2043123490739283 -2.5500121760623338
endloop
endfacet
facet normal 0.8660321185983757 -0.4999883694207385 0
outer loop
vertex 3.699969468866162 0 -2.5500121760623338
vertex 3.699969468866162 0 2.5500121760623338
vertex 1.8500162487463943 -3.2043123490739283 2.5500121760623338
endloop
endfacet
facet normal 0.8660321185983757 -0.4999883694207385 0
outer loop
vertex 3.699969468866162 0 -2.5500121760623338
vertex 1.8500162487463943 -3.2043123490739283 2.5500121760623338
vertex 1.8500162487463943 -3.2043123490739283 -2.5500121760623338
endloop
endfacet
facet normal 0 0 1
outer loop
vertex 0 0 2.5500121760623338
vertex 1.8500162487463943 -3.2043123490739283 2.5500121760623338
vertex 3.699969468866162 0 2.5500121760623338
endloop
endfacet
endsolid JSCAD
